<svg width="177" height="42" viewBox="0 0 177 42" fill="none" xmlns="http://www.w3.org/2000/svg">
<path d="M34.826 32.54C33.386 32.54 31.964 32.324 30.56 31.892C29.192 31.424 27.626 30.308 25.862 28.544L21.974 24.656C20.39 23.036 18.644 21.848 16.736 21.092C14.864 20.336 12.506 19.958 9.66201 19.958H7.98801V32H0.860007V4.56797L0.320007 0.19397H24.242C26.546 0.19397 28.346 0.49997 29.642 1.11197C30.974 1.72397 31.946 2.53397 32.558 3.54197C33.206 4.51397 33.62 5.55797 33.8 6.67397C33.98 7.78997 34.07 8.85197 34.07 9.85997V10.886C34.07 11.678 33.962 12.56 33.746 13.532C33.53 14.504 33.116 15.458 32.504 16.394C31.892 17.33 31.01 18.122 29.858 18.77C28.742 19.418 27.266 19.796 25.43 19.904C25.898 20.156 26.492 20.552 27.212 21.092C27.932 21.596 28.67 22.154 29.426 22.766C30.218 23.378 30.938 23.936 31.586 24.44C32.234 24.944 32.738 25.304 33.098 25.52C34.394 26.276 35.546 26.798 36.554 27.086C37.562 27.374 38.39 27.536 39.038 27.572C39.686 27.608 40.064 27.626 40.172 27.626L39.092 32C38.768 32.108 38.228 32.216 37.472 32.324C36.716 32.468 35.834 32.54 34.826 32.54ZM16.088 15.044C17.456 15.044 18.68 15.026 19.76 14.99C20.84 14.918 21.812 14.846 22.676 14.774C24.26 14.594 25.358 14.162 25.97 13.478C26.618 12.758 26.942 11.84 26.942 10.724V9.48197C26.942 8.32997 26.636 7.35797 26.024 6.56597C25.412 5.77397 24.314 5.37797 22.73 5.37797H7.98801V14.774C9.57201 14.882 11.03 14.954 12.362 14.99C13.694 15.026 14.936 15.044 16.088 15.044Z" fill="white"/>
<path d="M50.5468 32C48.7468 32 47.3608 31.766 46.3888 31.298C45.4168 30.83 44.7148 30.236 44.2828 29.516C43.8868 28.796 43.6348 28.04 43.5268 27.248C43.4548 26.456 43.4188 25.736 43.4188 25.088V14.72C43.4188 14.18 43.4548 13.532 43.5268 12.776C43.6348 11.984 43.8868 11.21 44.2828 10.454C44.7148 9.69797 45.4168 9.06797 46.3888 8.56397C47.3968 8.05997 48.7828 7.80797 50.5468 7.80797H62.1568C64.5328 7.80797 66.3868 8.04197 67.7188 8.50997C69.0868 8.94197 70.0408 9.66197 70.5808 10.67C71.1568 11.678 71.4448 13.028 71.4448 14.72V22.712H61.9948C58.7548 22.712 56.1088 22.64 54.0568 22.496C52.0408 22.352 50.6908 22.262 50.0068 22.226V25.196C49.9708 26.636 50.8348 27.356 52.5988 27.356H55.3528C57.2968 27.356 59.1868 27.338 61.0228 27.302C62.8948 27.23 64.6048 27.158 66.1528 27.086C67.7008 26.978 68.9428 26.888 69.8788 26.816L72.0388 30.326C72.0388 31.442 68.4928 32 61.4008 32H50.5468ZM50.0068 18.068H64.8568V14.612C64.8568 13.892 64.7668 13.388 64.5868 13.1C64.4428 12.812 63.9748 12.632 63.1828 12.56C62.3908 12.488 61.0408 12.452 59.1328 12.452H52.5988C50.8708 12.452 50.0068 13.172 50.0068 14.612V18.068Z" fill="white"/>
<path d="M77.4451 32V7.80797H81.8731L84.0331 8.88797C85.5451 8.59997 87.3631 8.34797 89.4871 8.13197C91.6111 7.91597 94.0411 7.80797 96.7771 7.80797H99.4771C101.277 7.80797 102.663 8.05997 103.635 8.56397C104.607 9.06797 105.291 9.69797 105.687 10.454C106.119 11.21 106.371 11.984 106.443 12.776C106.551 13.532 106.605 14.18 106.605 14.72V32H100.017V14.612C100.017 13.172 99.1531 12.452 97.4251 12.452H85.6531C84.9691 12.452 84.5191 12.524 84.3031 12.668C84.1231 12.776 84.0331 13.1 84.0331 13.64V32H77.4451Z" fill="white"/>
<path d="M130.596 41.504C126.636 41.504 123.414 41.468 120.93 41.396C118.446 41.324 116.538 41.216 115.206 41.072C113.874 40.928 112.956 40.748 112.452 40.532C111.984 40.316 111.75 40.082 111.75 39.83L113.37 35.78C113.946 35.96 114.954 36.176 116.394 36.428C117.87 36.716 119.742 36.86 122.01 36.86H131.244C132.576 36.86 133.512 36.662 134.052 36.266C134.628 35.87 134.916 35.168 134.916 34.16V30.92C133.368 31.208 131.532 31.46 129.408 31.676C127.32 31.892 124.908 32 122.172 32H119.472C117.672 32 116.286 31.766 115.314 31.298C114.342 30.83 113.64 30.236 113.208 29.516C112.812 28.796 112.56 28.04 112.452 27.248C112.38 26.456 112.344 25.736 112.344 25.088V14.72C112.344 14.18 112.38 13.532 112.452 12.776C112.56 11.984 112.812 11.21 113.208 10.454C113.64 9.69797 114.342 9.06797 115.314 8.56397C116.322 8.05997 117.708 7.80797 119.472 7.80797H122.226C126.006 7.80797 128.94 7.87997 131.028 8.02397C133.152 8.16797 134.7 8.32997 135.672 8.50997L137.076 7.80797H141.504V34.592C141.504 35.24 141.396 35.96 141.18 36.752C141 37.544 140.622 38.3 140.046 39.02C139.47 39.74 138.642 40.334 137.562 40.802C136.482 41.27 135.06 41.504 133.296 41.504H130.596ZM121.524 27.356H133.242C134.07 27.356 134.556 27.284 134.7 27.14C134.844 26.996 134.916 26.528 134.916 25.736V12.83C133.692 12.758 132.144 12.686 130.272 12.614C128.4 12.506 126.402 12.452 124.278 12.452H121.524C119.796 12.452 118.932 13.172 118.932 14.612V25.196C118.896 26.636 119.76 27.356 121.524 27.356Z" fill="white"/>
<path d="M154.592 32C152.18 32 150.38 31.514 149.192 30.542C148.04 29.57 147.464 27.986 147.464 25.79V14.72C147.464 14.18 147.5 13.532 147.572 12.776C147.68 11.984 147.932 11.21 148.328 10.454C148.76 9.69797 149.462 9.06797 150.434 8.56397C151.442 8.05997 152.828 7.80797 154.592 7.80797H169.496C171.296 7.80797 172.682 8.05997 173.654 8.56397C174.626 9.06797 175.31 9.69797 175.706 10.454C176.138 11.21 176.39 11.984 176.462 12.776C176.57 13.532 176.624 14.18 176.624 14.72V25.088C176.624 25.736 176.57 26.456 176.462 27.248C176.39 28.04 176.138 28.796 175.706 29.516C175.274 30.236 174.572 30.83 173.6 31.298C172.628 31.766 171.26 32 169.496 32H154.592ZM156.644 27.356H167.444C169.208 27.356 170.09 26.636 170.09 25.196V14.612C170.09 13.172 169.208 12.452 167.444 12.452H156.644C154.916 12.452 154.052 13.172 154.052 14.612V25.196C154.052 26.636 154.916 27.356 156.644 27.356Z" fill="white"/>
</svg>
