<svg width="1920" height="1080" viewBox="0 0 1920 1080" fill="none" xmlns="http://www.w3.org/2000/svg">
<path d="M563.891 243.339C552.5 205.973 506.323 178.56 468.942 195.279C476.653 121.51 381.178 133.902 340.697 162.804C333.65 34.0673 180.999 23.1608 184.921 161.902C154.281 122.997 79.5924 85.1012 45.917 139.883C20.358 187.422 49.9401 243.224 70.195 287.97C75.2159 299.064 84.3921 307.786 94.6932 313.751C169.832 349.852 262.444 350.528 343.364 343.024C398.439 337.917 570.789 320.126 563.891 243.339ZM550.529 257.02C548.18 281.993 524.605 292.782 500.759 299.943C490.965 302.885 456.452 311.279 447.112 313.089C347.456 332.392 170.652 347.533 98.0118 299.465C69.7947 272.889 39.1857 187.029 53.6991 149.2C60.006 132.76 75.281 119.084 93.6053 122.419C130.682 129.169 178.943 158.303 183.811 198.944H183.812C185.616 205.401 197.65 199.528 197.711 194.318C200.214 162.553 195.485 128.945 209.679 99.1502C220.974 75.4407 245.31 66.5837 269.66 75.4137C309.622 89.905 325.098 134.502 327.306 173.389C329.41 183.576 357.356 161.989 364.082 159.849C407.066 146.173 467.005 146.996 453.934 205.876C452.363 212.08 461.812 209.344 464.296 207.496C496.2 184.724 553.907 221.105 550.529 257.02Z" fill="white" fill-opacity="0.1"/>
<path d="M1172.89 61.3391C1161.5 23.9728 1115.32 -3.43962 1077.94 13.2795C1085.65 -60.4903 990.178 -48.0976 949.697 -19.1959C942.65 -147.933 789.999 -158.839 793.921 -20.0976C763.281 -59.0031 688.592 -96.8988 654.917 -42.1169C629.358 5.42232 658.94 61.224 679.195 105.97C684.216 117.064 693.392 125.786 703.693 131.751C778.832 167.852 871.444 168.528 952.364 161.024C1007.44 155.917 1179.79 138.126 1172.89 61.3391ZM1159.53 75.0198C1157.18 99.9933 1133.6 110.782 1109.76 117.943C1099.97 120.885 1065.45 129.279 1056.11 131.089C956.456 150.392 779.652 165.533 707.012 117.465C678.795 90.8892 648.186 5.02901 662.699 -32.7996C669.006 -49.2405 684.281 -62.9162 702.605 -59.5806C739.682 -52.8313 787.943 -23.6975 792.811 16.9443H792.812C794.616 23.4014 806.65 17.5278 806.711 12.3177C809.214 -19.4472 804.485 -53.0555 818.679 -82.8498C829.974 -106.559 854.31 -115.416 878.66 -106.586C918.622 -92.095 934.098 -47.4981 936.306 -8.61066C938.41 1.57631 966.356 -20.0106 973.082 -22.1513C1016.07 -35.827 1076 -35.0043 1062.93 23.8757C1061.36 30.0796 1070.81 27.3445 1073.3 25.496C1105.2 2.7242 1162.91 39.1047 1159.53 75.0198Z" fill="white" fill-opacity="0.1"/>
<path d="M296.938 1145.57C295.883 1145.57 294.821 1145.36 293.813 1144.93C292.062 1144.19 250.392 1126.16 204.276 1076.24C193.538 1064.61 185.705 1067.81 174.084 1074.47C173.025 1075.07 172.013 1075.65 171.054 1076.17C141.957 1091.96 56.2022 1143.89 55.3397 1144.41C52.8482 1145.92 49.7334 1145.96 47.208 1144.51C44.6815 1143.06 43.1426 1140.35 43.1886 1137.44C44.0421 1083.71 74.5328 1036.56 83.0828 1028.01C84.9579 1026.14 87.1051 1023.44 86.6819 1021.23C86.0245 1017.8 80.106 1013.89 77.2314 1012.65L-25.119 969.282C-28.0607 968.035 -29.9788 965.158 -29.9998 961.964C-30.0208 958.769 -28.1397 955.868 -25.2151 954.583C18.8875 935.206 81.9101 927.28 103.529 925.027C102.865 891.206 100.787 755.634 109.201 720.157C109.886 717.269 112.112 714.998 114.984 714.255C117.856 713.513 120.906 714.419 122.905 716.611C123.59 717.363 140.002 735.676 166.497 792.031C192.062 846.408 197.473 867.313 200.074 877.359L200.377 878.53C201.455 882.665 209.453 882.784 214.565 881.854C221.702 880.556 309.184 861.132 354.444 851.042C357.506 850.361 360.684 851.527 362.574 854.031C364.464 856.533 364.719 859.909 363.224 862.668C362.094 864.755 335.226 914.092 308.395 940.496C281.874 966.596 268.8 975.933 262.516 980.421L262.372 980.524C258.891 983.01 256.294 988.936 259.448 998.11C264.004 1011.36 302.892 1130.03 304.545 1135.07C305.523 1138.05 304.666 1141.33 302.355 1143.46C300.849 1144.84 298.908 1145.57 296.938 1145.57ZM-0.616781 962.276L83.52 997.932C85.232 998.67 99.9366 1005.35 102.403 1018.22C103.365 1023.24 102.757 1030.98 94.4013 1039.33C90.5611 1043.17 65.7057 1078.22 60.2395 1122.75C85.6713 1107.42 140.665 1074.45 163.417 1062.1C164.276 1061.64 165.18 1061.12 166.127 1060.58C175.782 1055.05 195.869 1043.55 216.034 1065.38C242.413 1093.93 267.354 1111.54 283.106 1121.07C271.568 1085.89 247.73 1013.27 244.307 1003.31C238.292 985.816 244.888 973.338 253.065 967.497L253.209 967.392C259.16 963.143 271.541 954.3 297.164 929.084C313.353 913.152 330.16 887.197 340.133 870.629C303.853 878.701 224.672 896.287 217.427 897.604C200.83 900.622 188.055 894.721 184.885 882.57L184.573 881.371C182.094 871.794 176.936 851.866 152.008 798.842C139.35 771.919 129.116 754.058 122.044 742.924C116.694 800.229 119.655 930.607 119.69 932.1C119.789 936.337 116.566 939.918 112.342 940.266C111.633 940.323 48.7439 945.655 -0.616781 962.276Z" fill="white" fill-opacity="0.1"/>
<path d="M1889.15 505C1888.57 505 1887.99 504.886 1887.44 504.651C1886.48 504.243 1863.64 494.343 1838.37 466.927C1832.49 460.543 1828.2 462.3 1821.83 465.955C1821.25 466.288 1820.69 466.605 1820.17 466.891C1804.23 475.561 1757.24 504.077 1756.76 504.364C1755.4 505.192 1753.69 505.212 1752.31 504.416C1750.92 503.62 1750.08 502.133 1750.1 500.534C1750.57 471.028 1767.28 445.139 1771.96 440.443C1772.99 439.414 1774.17 437.932 1773.94 436.719C1773.58 434.836 1770.33 432.689 1768.76 432.009L1712.67 408.19C1711.06 407.506 1710.01 405.926 1710 404.172C1709.99 402.417 1711.02 400.824 1712.62 400.118C1736.79 389.477 1771.32 385.125 1783.17 383.887C1782.8 365.314 1781.67 290.863 1786.28 271.381C1786.65 269.795 1787.87 268.548 1789.45 268.14C1791.02 267.733 1792.69 268.23 1793.79 269.434C1794.16 269.847 1803.15 279.904 1817.67 310.851C1831.68 340.713 1834.65 352.193 1836.07 357.71L1836.24 358.353C1836.83 360.624 1841.21 360.689 1844.01 360.178C1847.92 359.466 1895.86 348.799 1920.66 343.258C1922.34 342.884 1924.08 343.524 1925.11 344.899C1926.15 346.273 1926.29 348.127 1925.47 349.642C1924.85 350.788 1910.13 377.882 1895.43 392.382C1880.89 406.715 1873.73 411.843 1870.29 414.308L1870.21 414.364C1868.3 415.73 1866.88 418.984 1868.61 424.022C1871.1 431.3 1892.41 496.465 1893.32 499.235C1893.85 500.873 1893.38 502.675 1892.12 503.841C1891.29 504.601 1890.23 505 1889.15 505ZM1726.1 404.343L1772.2 423.924C1773.14 424.329 1781.2 427.995 1782.55 435.064C1783.08 437.821 1782.75 442.071 1778.17 446.66C1776.06 448.769 1762.44 468.012 1759.45 492.468C1773.38 484.051 1803.52 465.943 1815.98 459.164C1816.45 458.908 1816.95 458.624 1817.47 458.326C1822.76 455.29 1833.77 448.974 1844.82 460.962C1859.27 476.644 1872.94 486.315 1881.57 491.547C1875.25 472.228 1862.18 432.348 1860.31 426.88C1857.01 417.27 1860.63 410.418 1865.11 407.21L1865.19 407.153C1868.45 404.819 1875.23 399.963 1889.27 386.115C1898.14 377.366 1907.35 363.113 1912.82 354.014C1892.94 358.447 1849.55 368.105 1845.58 368.828C1836.49 370.485 1829.48 367.245 1827.75 360.572L1827.58 359.913C1826.22 354.654 1823.39 343.711 1809.73 314.592C1802.8 299.807 1797.19 289.998 1793.31 283.884C1790.38 315.354 1792 386.952 1792.02 387.772C1792.08 390.099 1790.31 392.065 1788 392.256C1787.61 392.287 1753.15 395.215 1726.1 404.343Z" fill="white" fill-opacity="0.1"/>
<path d="M259.27 773.402C259.006 773.249 258.77 773.044 258.579 772.79C258.248 772.351 250.423 761.804 246.102 742.613C245.097 738.144 242.672 737.814 238.797 737.803C238.444 737.802 238.107 737.8 237.791 737.792C228.218 737.545 199.22 738.17 198.928 738.176C198.086 738.194 197.3 737.753 196.878 737.024C196.455 736.295 196.462 735.394 196.895 734.67C204.89 721.316 219.353 713.9 222.733 712.991C223.474 712.792 224.403 712.426 224.617 711.81C224.949 710.855 224.033 709.019 223.492 708.293L204.139 682.613C203.583 681.875 203.519 680.876 203.976 680.072C204.434 679.268 205.325 678.812 206.244 678.912C220.096 680.429 237.028 687.554 242.769 690.115C247.5 681.536 266.614 647.229 273.859 639.546C274.448 638.921 275.335 638.673 276.162 638.902C276.988 639.131 277.621 639.8 277.804 640.638C277.867 640.926 279.325 647.893 277.8 665.86C276.328 683.196 274.655 689.223 273.852 692.119L273.758 692.456C273.43 693.649 275.415 694.836 276.83 695.341C278.806 696.048 303.529 703.826 316.326 707.839C317.191 708.111 317.818 708.863 317.929 709.764C318.04 710.665 317.615 711.549 316.841 712.025C316.256 712.385 302.382 720.875 291.838 723.619C281.416 726.331 276.789 726.782 274.565 726.999L274.514 727.004C273.282 727.125 271.774 728.236 271.235 730.993C270.457 734.976 263.012 770.364 262.695 771.869C262.508 772.758 261.819 773.457 260.932 773.656C260.355 773.785 259.763 773.687 259.27 773.402ZM211.29 684.399L227.199 705.509C227.521 705.942 230.237 709.742 228.991 713.328C228.504 714.726 227.232 716.58 223.929 717.468C222.411 717.876 211.111 723.071 203.293 733.451C211.882 733.284 230.43 732.965 237.916 733.159C238.199 733.166 238.501 733.167 238.816 733.167C242.035 733.177 248.731 733.197 250.621 741.588C253.092 752.566 256.788 760.589 259.353 765.257C261.558 754.764 266.105 733.102 266.69 730.109C267.717 724.85 271.176 722.674 274.07 722.391L274.121 722.386C276.227 722.18 280.609 721.752 290.678 719.132C297.04 717.477 305.008 713.397 309.905 710.683C299.65 707.462 277.271 700.423 275.266 699.706C270.672 698.063 268.327 694.736 269.293 691.229L269.389 690.883C270.155 688.123 271.749 682.378 273.185 665.473C273.913 656.89 273.937 650.93 273.778 647.114C264.139 660.715 245.999 693.847 245.792 694.226C245.203 695.303 243.877 695.735 242.769 695.212C242.583 695.124 226.06 687.367 211.29 684.399Z" fill="white" fill-opacity="0.1"/>
<path d="M1785.02 858.755C1793.1 872.446 1835.69 917.689 1835.34 932.03C1835.07 936.191 1832.44 939.455 1829.47 942.151C1798.85 967.1 1772.93 997.519 1753.92 1032.19C1753.37 1033.19 1747.78 1028.88 1747.28 1028.48C1745.48 1026.83 1742.79 1025.34 1742.11 1022.9C1755.14 999.257 1771.32 977.416 1790.11 958.052C1797.7 947.673 1823.67 932.654 1823.54 921.995C1822.26 911.224 1812.79 903.773 1807.11 895.09C1788.45 870.571 1750.91 821.26 1732.24 796.722C1730.26 792.647 1742 801.407 1743.19 803.797C1744.88 805.959 1782.34 855.333 1785.02 858.755ZM1620.17 808.469C1618.98 806.079 1607.25 797.32 1609.22 801.395C1627.9 825.934 1665.44 875.245 1684.1 899.764C1689.77 908.446 1699.25 915.897 1700.52 926.668C1700.66 937.318 1674.69 952.36 1667.1 962.728C1648.31 982.092 1632.12 1003.93 1619.1 1027.57C1619.77 1030.02 1622.47 1031.51 1624.26 1033.16C1624.77 1033.55 1630.36 1037.87 1630.91 1036.87C1649.92 1002.19 1675.83 971.775 1706.45 946.824C1709.42 944.129 1712.05 940.864 1712.32 936.704C1712.67 922.365 1670.08 877.119 1662.01 863.427C1659.33 860.005 1621.87 810.631 1620.17 808.469ZM1870.95 812.856C1863.28 803.626 1855.57 794.439 1847.8 785.294C1845.11 783.043 1841.01 782.701 1837.66 783.2C1835.3 783.693 1832.41 785.07 1834.57 787.615C1869.28 828.459 1903.03 870.348 1935.44 912.892C1906.71 958.165 1877.02 1002.83 1846.38 1046.83C1844.39 1052.28 1858.42 1053.18 1860.67 1049.88C1872.73 1032.54 1884.66 1015.1 1896.44 997.561C1914.8 970.228 1932.79 942.646 1950.42 914.837C1928.04 879.618 1897.28 846.423 1870.95 812.856Z" fill="white" fill-opacity="0.1"/>
</svg>
