<svg width="736" height="456" viewBox="0 0 736 456" fill="none" xmlns="http://www.w3.org/2000/svg">
<path d="M611.612 433.042L599.966 375.159H553.221L541.574 433.042" fill="#FCF1D5"/>
<path d="M612.545 432.784L600.898 374.901C600.815 374.487 600.368 374.188 599.966 374.188H553.223C552.822 374.188 552.373 374.487 552.29 374.901L540.644 432.784C540.398 434.004 542.263 434.526 542.509 433.301L554.155 375.418L553.223 376.131H599.966L599.033 375.418L610.68 433.301C610.925 434.524 612.791 434.006 612.545 432.784Z" fill="black"/>
<path d="M732.125 172.119V364.531C732.125 372.885 725.372 379.664 717.052 379.664H436.134C427.814 379.664 421.061 372.885 421.061 364.531V172.119C421.061 163.766 427.814 156.986 436.134 156.986H717.052C725.372 156.986 732.125 163.766 732.125 172.119Z" fill="#FCF1D5"/>
<path d="M717.052 380.635H436.136C427.292 380.635 420.096 373.411 420.096 364.531V172.119C420.094 163.24 427.29 156.015 436.136 156.015H717.054C725.899 156.015 733.095 163.24 733.095 172.119V364.531C733.093 373.411 725.897 380.635 717.052 380.635ZM436.136 157.958C428.358 157.958 422.029 164.312 422.029 172.119V364.531C422.029 372.341 428.358 378.693 436.134 378.693H717.052C724.831 378.693 731.158 372.339 731.158 364.531V172.119C731.158 164.31 724.829 157.958 717.052 157.958H436.136Z" fill="black"/>
<path d="M625.319 454.477H527.867C526.971 454.477 526.111 454.119 525.477 453.483C524.843 452.846 524.487 451.983 524.487 451.083V436.535C524.487 434.66 526 433.141 527.867 433.141H625.318C627.185 433.141 628.698 434.66 628.698 436.535V451.083C628.698 451.529 628.611 451.97 628.441 452.382C628.272 452.793 628.023 453.167 627.709 453.483C627.395 453.798 627.023 454.048 626.613 454.218C626.203 454.389 625.763 454.477 625.319 454.477Z" fill="#FCF1D5"/>
<path d="M625.319 455.448H527.867C526.714 455.446 525.609 454.986 524.794 454.167C523.979 453.348 523.52 452.239 523.519 451.081V436.533C523.521 435.376 523.979 434.267 524.794 433.448C525.609 432.63 526.714 432.17 527.867 432.168H625.319C626.472 432.17 627.577 432.63 628.392 433.448C629.207 434.267 629.666 435.376 629.667 436.533V451.081C629.666 452.239 629.208 453.348 628.393 454.167C627.578 454.986 626.472 455.446 625.319 455.448ZM527.867 434.111C526.536 434.111 525.454 435.199 525.454 436.533V451.081C525.454 452.418 526.538 453.505 527.867 453.505H625.319C626.651 453.505 627.732 452.418 627.732 451.081V436.533C627.732 435.197 626.649 434.111 625.319 434.111H527.867Z" fill="black"/>
<path d="M716.276 183.431V351.629C716.276 358.931 710.212 364.858 702.739 364.858H450.447C442.974 364.858 436.91 358.931 436.91 351.629V183.431C436.91 176.129 442.974 170.202 450.447 170.202H702.737C710.21 170.202 716.276 176.129 716.276 183.431Z" fill="white"/>
<path d="M708.25 250.321H447.04V202.239H708.25V250.321Z" fill="#F9C8B7"/>
<path d="M708.25 249.35H447.04L448.007 250.321V202.239L447.04 203.21H708.25L707.282 202.239V250.321C707.282 251.571 709.217 251.574 709.217 250.321V202.239C709.217 201.714 708.774 201.268 708.25 201.268H447.04C446.517 201.268 446.072 201.712 446.072 202.239V250.321C446.072 250.846 446.515 251.293 447.04 251.293H708.25C709.494 251.293 709.498 249.35 708.25 249.35Z" fill="#F9C8B7"/>
<path d="M527.095 330.303H459.561C459.06 330.303 458.564 330.205 458.101 330.012C457.638 329.82 457.218 329.538 456.864 329.182C456.509 328.827 456.229 328.405 456.037 327.94C455.845 327.475 455.747 326.977 455.747 326.474V283.885C455.747 283.382 455.845 282.884 456.037 282.42C456.229 281.955 456.509 281.533 456.864 281.177C457.218 280.822 457.638 280.54 458.101 280.347C458.564 280.155 459.06 280.056 459.561 280.057H527.095C527.596 280.056 528.092 280.155 528.555 280.347C529.018 280.54 529.438 280.822 529.792 281.177C530.146 281.533 530.427 281.955 530.619 282.42C530.811 282.884 530.909 283.382 530.909 283.885V326.474C530.909 326.977 530.811 327.475 530.619 327.94C530.427 328.405 530.146 328.827 529.792 329.182C529.438 329.538 529.018 329.82 528.555 330.012C528.092 330.205 527.596 330.303 527.095 330.303Z" fill="#F6A50C"/>
<path d="M527.095 331.275H459.561C458.293 331.273 457.078 330.767 456.182 329.867C455.285 328.967 454.781 327.747 454.78 326.474V283.885C454.781 282.613 455.285 281.393 456.182 280.493C457.078 279.593 458.293 279.087 459.561 279.085H527.095C528.363 279.087 529.578 279.593 530.474 280.493C531.371 281.393 531.875 282.613 531.876 283.885V326.474C531.875 327.747 531.371 328.967 530.475 329.867C529.578 330.767 528.363 331.273 527.095 331.275ZM459.561 281.03C457.992 281.03 456.715 282.312 456.715 283.887V326.476C456.715 328.052 457.992 329.334 459.561 329.334H527.095C528.664 329.334 529.941 328.052 529.941 326.476V283.885C529.941 282.31 528.664 281.028 527.095 281.028H459.561V281.03ZM701.772 330.303H634.238C633.737 330.303 633.241 330.205 632.778 330.012C632.315 329.82 631.895 329.538 631.54 329.182C631.186 328.827 630.905 328.405 630.714 327.94C630.522 327.475 630.424 326.977 630.424 326.474V283.885C630.424 283.382 630.522 282.884 630.714 282.42C630.905 281.955 631.186 281.533 631.54 281.177C631.895 280.822 632.315 280.54 632.778 280.347C633.241 280.155 633.737 280.056 634.238 280.057H701.772C702.273 280.056 702.769 280.155 703.232 280.347C703.694 280.54 704.115 280.822 704.469 281.177C704.823 281.533 705.104 281.955 705.296 282.42C705.487 282.884 705.586 283.382 705.586 283.885V326.474C705.586 326.977 705.487 327.475 705.296 327.94C705.104 328.405 704.823 328.827 704.469 329.182C704.115 329.538 703.694 329.82 703.232 330.012C702.769 330.205 702.273 330.303 701.772 330.303Z" fill="#F6A50C"/>
<path d="M701.774 331.275H634.24C632.972 331.273 631.757 330.767 630.86 329.867C629.964 328.967 629.46 327.747 629.458 326.474V283.885C629.46 282.613 629.964 281.393 630.86 280.493C631.757 279.593 632.972 279.087 634.24 279.085H701.774C703.041 279.087 704.256 279.593 705.153 280.493C706.049 281.393 706.553 282.613 706.555 283.885V326.474C706.553 327.747 706.049 328.967 705.153 329.867C704.256 330.767 703.041 331.273 701.774 331.275ZM634.238 281.03C632.668 281.03 631.391 282.312 631.391 283.887V326.476C631.391 328.052 632.668 329.334 634.238 329.334H701.772C703.341 329.334 704.618 328.052 704.618 326.476V283.885C704.618 282.31 703.341 281.028 701.772 281.028H634.238V281.03Z" fill="#F6A50C"/>
<path d="M462.845 339.041H492.771C494.015 339.041 494.019 337.098 492.771 337.098H462.845C461.6 337.098 461.598 339.041 462.845 339.041ZM462.576 348.981H483.096C484.34 348.981 484.344 347.039 483.096 347.039H462.576C461.33 347.039 461.328 348.981 462.576 348.981ZM489.305 348.981H499.295C500.54 348.981 500.543 347.039 499.295 347.039H489.305C488.059 347.039 488.057 348.981 489.305 348.981ZM637.531 339.041H698.01C699.254 339.041 699.258 337.098 698.01 337.098H637.531C636.287 337.098 636.285 339.041 637.531 339.041ZM637.802 348.981H657.782C659.026 348.981 659.03 347.039 657.782 347.039H637.802C636.556 347.039 636.554 348.981 637.802 348.981ZM570.245 339.041H604.803C606.047 339.041 606.051 337.098 604.803 337.098H570.245C569 337.098 568.999 339.041 570.245 339.041ZM555.454 348.981H605.132C606.376 348.981 606.38 347.039 605.132 347.039H555.454C554.208 347.039 554.206 348.981 555.454 348.981ZM555.994 356.299H571.653C572.897 356.299 572.901 354.356 571.653 354.356H555.994C554.748 354.356 554.746 356.299 555.994 356.299Z" fill="black"/>
<path d="M138.539 453.51H735.064C736.309 453.51 736.313 452.541 735.064 452.541H138.539C137.292 452.541 137.29 453.51 138.539 453.51ZM130.974 452.541H122.598C121.353 452.541 121.35 453.51 122.598 453.51H130.974C132.219 453.51 132.221 452.541 130.974 452.541Z" fill="white"/>
<path d="M443.729 156.154C448.601 144.969 460.623 137.312 472.812 137.628C485.004 137.944 496.61 146.216 500.895 157.639L443.729 156.154Z" fill="#E34123"/>
<path d="M444.572 156.646C448.342 148.138 456.104 141.757 465.105 139.476C474.152 137.183 483.796 139.654 490.96 145.562C494.939 148.844 498.11 153.069 499.957 157.898L500.897 156.663L443.729 155.178C442.473 155.145 442.475 157.096 443.729 157.129L500.897 158.614C501.484 158.63 502.063 157.97 501.837 157.379C498.315 148.167 490.47 140.977 481.078 138.036C471.615 135.074 461.212 137.107 453.262 142.949C448.788 146.235 445.145 150.571 442.888 155.662C442.383 156.798 444.063 157.793 444.572 156.646ZM371.06 53.9538L586.871 17.3667C587.91 17.1911 588.492 15.9091 588.232 14.9666C587.93 13.8661 586.875 13.427 585.833 13.6046L370.023 50.1917C368.983 50.3673 368.402 51.6493 368.661 52.5918C368.964 53.6923 370.019 54.1314 371.06 53.9538Z" fill="#E34123"/>
<path d="M476.89 27.9526C477.522 28.6063 477.44 29.6483 477.44 31.0064V146.089H467.213V32.2806C467.213 31.0356 466.831 29.4063 467.49 28.2589C468.258 26.9223 469.62 27.3769 470.991 27.3769C472.434 27.3769 473.901 27.0296 475.342 27.2735C476.095 27.4004 476.58 27.6306 476.89 27.9526Z" fill="#E34123"/>
<path d="M476.202 28.6414C476.604 29.137 476.467 30.019 476.467 30.6083L476.465 146.091L477.44 145.115H467.213L468.188 146.091V45.5964C468.188 41.1064 468.311 36.5949 468.184 32.1069C468.159 31.2269 467.97 30.2981 468.13 29.4239C468.366 28.1262 469.265 28.2687 470.31 28.3272C471.272 28.3799 472.212 28.2785 473.169 28.2121C474.078 28.1458 475.459 27.974 476.202 28.6414C477.132 29.4785 478.517 28.1028 477.581 27.2618C476.383 26.1847 474.694 26.1496 473.169 26.2588C472.272 26.3232 471.383 26.4286 470.48 26.3837C469.709 26.3466 468.925 26.2549 468.176 26.4949C466.739 26.9594 466.189 28.4638 466.134 29.8493C466.056 31.7928 466.238 33.787 466.238 35.7364V146.089C466.238 146.616 466.684 147.065 467.213 147.065H477.44C477.967 147.065 478.415 146.618 478.415 146.089V31.4903C478.417 29.9937 478.575 28.4872 477.581 27.2618C476.789 26.2881 475.416 27.6755 476.202 28.6414Z" fill="#E34123"/>
<path d="M470.259 36.0095C468.022 33.0787 472.959 29.4161 475.034 32.6709C476.929 35.6427 472.325 38.716 470.259 36.0095Z" fill="white"/>
<path d="M471.1 35.5178C471.012 35.4014 470.931 35.2795 470.858 35.1529C470.825 35.0924 470.796 35.03 470.764 34.9675C470.694 34.831 470.801 35.0515 470.803 35.0612C470.794 35.0163 470.766 34.9656 470.753 34.9227C470.712 34.7997 470.688 34.6768 470.661 34.5519C470.63 34.4056 470.681 34.6651 470.677 34.6729C470.683 34.6573 470.669 34.6027 470.669 34.5812C470.667 34.5051 470.663 34.429 470.665 34.3529L470.677 34.1714C470.683 34.0153 470.624 34.4387 470.675 34.2085C470.7 34.0836 470.733 33.9604 470.774 33.8397C470.786 33.8046 470.872 33.5841 470.8 33.7675C470.727 33.947 470.825 33.7226 470.848 33.6797C470.909 33.5646 470.975 33.4553 471.049 33.348C471.067 33.3226 471.086 33.2992 471.102 33.2738C471.164 33.1782 470.958 33.4475 471.034 33.3616C471.075 33.3167 471.112 33.266 471.153 33.2211C471.24 33.1236 471.332 33.0318 471.429 32.944C471.474 32.905 471.531 32.8679 471.57 32.825C471.392 33.024 471.467 32.9031 471.558 32.8387C471.671 32.7587 471.79 32.6865 471.911 32.6201L472.075 32.5382C472.286 32.4328 471.905 32.5947 472.052 32.546C472.182 32.503 472.309 32.4543 472.442 32.423L472.619 32.386C472.645 32.3801 472.685 32.3821 472.709 32.3703C472.705 32.3723 472.438 32.3957 472.584 32.3879C472.719 32.3821 472.851 32.3703 472.986 32.3782C473.04 32.3801 473.111 32.4016 473.163 32.3938C473.157 32.3938 472.896 32.345 473.037 32.3782L473.124 32.3957C473.251 32.423 473.37 32.4679 473.493 32.5089C473.602 32.544 473.286 32.4074 473.388 32.466C473.415 32.4816 473.444 32.4933 473.471 32.5069C473.528 32.5362 473.583 32.5674 473.637 32.6006L473.799 32.7099C473.897 32.7743 473.633 32.5674 473.719 32.6494L473.815 32.7333C473.928 32.8367 474.023 32.9499 474.125 33.0631C474.207 33.1548 474.01 32.8953 474.076 33.0006C474.096 33.0338 474.121 33.0631 474.142 33.0962C474.193 33.1704 474.24 33.2465 474.283 33.3245C474.32 33.3909 474.353 33.4611 474.388 33.5294C474.46 33.6719 474.359 33.467 474.357 33.4494C474.361 33.4787 474.384 33.5216 474.396 33.5509C474.449 33.6992 474.462 33.8592 474.511 34.0075C474.509 33.9997 474.486 33.7441 474.495 33.8982L474.503 33.9977C474.507 34.0641 474.507 34.1285 474.505 34.1948C474.503 34.2592 474.491 34.3256 474.491 34.388C474.49 34.0738 474.503 34.3021 474.478 34.4134C474.449 34.5383 474.406 34.6573 474.367 34.7783C474.318 34.9266 474.476 34.548 474.369 34.7646C474.309 34.887 474.24 35.0045 474.162 35.1158L474.107 35.1939C474.043 35.2915 474.248 35.0222 474.172 35.1119C474.076 35.2232 473.982 35.3324 473.877 35.4339L473.733 35.5646L473.657 35.6271C473.567 35.7032 473.836 35.4983 473.739 35.5646C473.624 35.6427 473.51 35.7227 473.39 35.791C473.319 35.832 473.247 35.8691 473.173 35.9042C472.953 36.0095 473.347 35.8437 473.159 35.912C473.015 35.9657 472.868 36.0106 472.719 36.0466C472.641 36.0642 472.559 36.072 472.481 36.0915C472.485 36.0896 472.75 36.0642 472.596 36.0739L472.477 36.0837C472.325 36.0915 472.173 36.0661 472.022 36.072C472.026 36.072 472.29 36.1169 472.139 36.0876L472.022 36.0642C471.951 36.0487 471.881 36.0305 471.812 36.0095C471.708 35.9783 471.515 35.8495 471.771 36.0037C471.701 35.9608 471.621 35.9315 471.548 35.8905C471.483 35.8514 471.419 35.8104 471.355 35.7676C471.322 35.7461 471.223 35.6739 471.35 35.7656C471.486 35.8632 471.355 35.7676 471.326 35.7403C471.187 35.6152 471.06 35.4781 470.946 35.3305C470.632 34.9266 469.893 34.9754 469.567 35.3305C469.173 35.7598 469.231 36.2788 469.567 36.7101C470.552 37.9745 472.305 38.3492 473.766 37.7579C475.237 37.1647 476.409 35.8378 476.453 34.1968C476.498 32.5733 475.276 30.9088 473.686 30.5303C472.276 30.1946 470.747 30.7703 469.785 31.8318C469.194 32.4654 468.824 33.2729 468.728 34.1343C468.655 34.984 468.899 35.8305 469.413 36.511C469.717 36.9189 470.269 37.1686 470.747 36.8603C471.153 36.593 471.428 35.9549 471.1 35.5178ZM359.386 50.1449L274.256 200.983C273.638 202.078 275.323 203.063 275.939 201.969L361.071 51.1283C361.689 50.0356 360.004 49.0502 359.386 50.1449ZM372.244 41.4557L585.642 6.60912C586.879 6.40813 586.354 4.52707 585.123 4.72805L371.725 39.5746C370.491 39.7756 371.015 41.6567 372.244 41.4557ZM588.195 23.0489V180.04C588.195 181.295 590.145 181.298 590.145 180.04V23.0489C590.145 21.7942 588.195 21.7923 588.195 23.0489Z" fill="white"/>
<path d="M583.707 189.449C583.512 191.166 584.872 192.821 586.528 193.176C588.219 193.537 589.927 192.563 590.725 191.075C591.717 189.223 590.974 187.351 590.522 185.468C590.005 183.318 590.013 181.09 590.009 178.892C590.007 177.638 588.057 177.634 588.059 178.892C588.063 180.592 588.07 182.294 588.287 183.982C588.388 184.78 588.527 185.572 588.735 186.35C588.934 187.1 589.215 187.851 589.285 188.628C589.387 189.748 588.81 191.006 587.618 191.268C586.512 191.512 585.535 190.534 585.66 189.451C585.72 188.922 585.168 188.481 584.685 188.475C584.107 188.468 583.768 188.928 583.707 189.449Z" fill="white"/>
<path d="M586.658 180.51L590.274 182.53C590.719 182.779 591.359 182.653 591.608 182.18C591.852 181.72 591.735 181.111 591.259 180.846L587.643 178.826C587.198 178.576 586.559 178.703 586.309 179.175C586.065 179.636 586.182 180.245 586.658 180.51ZM586.865 175.564L590.493 177.56C590.939 177.806 591.577 177.685 591.827 177.21C592.068 176.754 591.953 176.139 591.478 175.876L587.85 173.88C587.403 173.634 586.766 173.755 586.516 174.229C586.274 174.685 586.387 175.3 586.865 175.564ZM587.037 169.952L590.662 172.135C591.099 172.398 591.753 172.246 591.996 171.786C592.122 171.561 592.156 171.297 592.09 171.048C592.025 170.799 591.867 170.585 591.647 170.451L588.022 168.268C587.585 168.004 586.931 168.156 586.688 168.617C586.562 168.841 586.528 169.106 586.593 169.355C586.659 169.603 586.817 169.817 587.037 169.952Z" fill="white"/>
<path d="M269.55 249.286C270.213 250.043 271.219 251.126 272.358 250.822C273.316 250.566 273.616 249.559 273.722 248.689C274.006 246.344 273.433 243.922 273.31 241.578C273.023 236.119 272.75 230.661 272.423 225.203C272.266 222.469 272.082 219.736 271.873 217.006C271.719 215.074 271.76 212.869 270.829 211.105C269.413 208.42 266.31 209.009 263.884 209.676C258.999 211.019 254.138 212.469 249.269 213.866C246.749 214.59 244.235 215.405 241.688 216.034C240.436 216.342 238.758 216.42 237.955 217.597C237.069 218.894 238.05 220.34 239.033 221.218C240.504 222.53 242.115 223.665 243.585 224.99C248.052 229.012 252.567 232.985 256.925 237.126C259.129 239.219 261.323 241.325 263.562 243.381C265.649 245.301 267.728 247.106 269.55 249.286C270.355 250.25 271.73 248.865 270.929 247.906C268.134 244.566 264.694 241.813 261.528 238.821C258.146 235.625 254.774 232.425 251.316 229.31C248.215 226.516 245.206 223.466 241.857 220.971C241.253 220.52 240.617 220.079 240.088 219.536C239.661 219.097 239.343 218.771 239.958 218.455C240.473 218.19 241.165 218.141 241.727 218.022C242.739 217.806 243.732 217.484 244.726 217.199C249.175 215.924 253.622 214.646 258.07 213.37C260.089 212.793 262.102 212.201 264.124 211.634C265.23 211.323 266.468 210.904 267.633 211.033C268.785 211.161 269.234 212.061 269.489 213.103C270 215.193 269.967 217.513 270.117 219.653C270.449 224.391 270.747 229.135 271.007 233.877C271.214 237.645 271.297 241.409 271.68 245.163C271.791 246.252 271.953 247.43 271.791 248.521C271.777 248.607 271.648 248.931 271.68 249.009C271.668 248.978 271.648 249.118 271.629 249.103C271.582 249.062 272.007 248.931 272.005 248.917C272.001 248.88 271.089 248.088 270.929 247.906C270.098 246.96 268.725 248.344 269.55 249.286Z" fill="#E34123"/>
<path d="M269.166 203.67C270.394 201.82 273.367 201.389 275.024 202.985C275.485 203.428 275.842 203.984 276.037 204.595C276.194 205.067 276.257 205.565 276.222 206.061C276.218 206.131 276.171 206.539 276.202 206.326C276.143 206.746 276.032 207.158 275.873 207.551C275.965 207.327 275.848 207.592 275.818 207.651C275.775 207.735 275.729 207.819 275.682 207.899C275.635 207.979 275.582 208.055 275.532 208.133C275.393 208.342 275.592 208.086 275.457 208.232C275.337 208.363 275.221 208.496 275.091 208.617C275.026 208.675 274.958 208.73 274.892 208.787C274.794 208.872 275.044 208.681 274.935 208.753C274.89 208.783 274.847 208.816 274.802 208.847C274.658 208.943 274.51 209.031 274.355 209.109L274.121 209.22C274.336 209.12 274.112 209.22 274.022 209.251C273.786 209.333 273.544 209.397 273.298 209.442C273.255 209.45 273.211 209.456 273.17 209.466C272.949 209.514 273.394 209.45 273.168 209.468C272.816 209.5 272.462 209.507 272.109 209.489L271.843 209.466C271.711 209.456 272.017 209.499 271.773 209.454C271.411 209.396 271.056 209.303 270.712 209.177C270.681 209.165 270.408 209.06 270.552 209.118C270.679 209.169 270.416 209.056 270.369 209.032C270.212 208.957 270.059 208.874 269.911 208.783L269.692 208.644C269.651 208.617 269.421 208.447 269.53 208.533C269.653 208.627 269.431 208.449 269.408 208.428C269.343 208.372 269.281 208.315 269.22 208.256C269.092 208.131 268.976 207.996 268.859 207.862C269.01 208.035 268.863 207.866 268.809 207.782C268.757 207.704 268.707 207.625 268.661 207.544C268.608 207.454 268.567 207.356 268.516 207.267C268.446 207.142 268.571 207.44 268.493 207.21C268.428 207.015 268.376 206.824 268.331 206.623C268.321 206.58 268.317 206.537 268.309 206.494C268.286 206.375 268.317 206.706 268.315 206.523C268.315 206.41 268.3 206.297 268.3 206.184C268.3 206.09 268.302 205.998 268.309 205.905L268.321 205.762C268.333 205.524 268.274 205.969 268.325 205.733C268.374 205.504 268.419 205.28 268.489 205.058C268.53 204.927 268.579 204.796 268.629 204.667C268.557 204.849 268.682 204.554 268.707 204.502C268.84 204.214 268.993 203.936 269.166 203.67C269.84 202.607 268.153 201.627 267.483 202.685C266.349 204.464 265.87 206.742 267.036 208.632C268.038 210.258 269.858 211.165 271.709 211.397C273.515 211.624 275.506 211.103 276.749 209.713C278.658 207.583 278.586 204.238 276.813 202.053C274.404 199.087 269.536 199.592 267.483 202.685C266.784 203.735 268.473 204.712 269.166 203.67ZM234.194 219.031C247.264 230.372 259.986 242.115 272.803 253.739C274.315 255.111 276.846 255.345 278.319 253.739C279.69 252.244 279.933 249.684 278.319 248.221C265.501 236.597 252.781 224.854 239.71 213.513C238.169 212.176 235.688 211.883 234.194 213.513C232.849 214.978 232.548 217.603 234.194 219.031Z" fill="#E34123"/>
<path d="M607.074 8.61312C608.553 13.8524 607.815 19.521 605.048 24.208C604.408 25.291 606.093 26.2745 606.731 25.1934C608.231 22.6392 609.201 19.8088 609.583 16.8712C609.965 13.9336 609.751 10.9491 608.954 8.09602C608.615 6.88816 606.733 7.40135 607.074 8.61312ZM614.63 14.3227C615.19 16.8655 614.736 19.5269 613.364 21.7396C612.703 22.8109 614.39 23.7924 615.047 22.725C616.678 20.0561 617.202 16.8558 616.51 13.8056C616.393 13.2924 615.802 12.9899 615.31 13.1246C614.784 13.2689 614.515 13.8075 614.63 14.3227ZM368.466 77.5764C379.372 77.6486 389.892 71.6035 395.326 62.1415C395.952 61.0508 394.267 60.0673 393.643 61.1561C388.545 70.0346 378.702 75.6915 368.466 75.6232C367.21 75.6173 367.208 77.5686 368.466 77.5764ZM384.001 83.7289C388.667 82.2993 392.634 79.1803 395.125 74.9812C395.765 73.8962 394.08 72.9147 393.442 73.9958C391.214 77.7622 387.663 80.562 383.482 81.8478C382.284 82.2108 382.793 84.0957 384.001 83.7289Z" fill="white"/>
<path d="M575.169 5.34662C571.021 9.48731 570.278 16.4867 573.145 21.6011C580.589 34.8836 598.772 30.2102 600.197 15.8057C601.588 1.76596 584.158 -3.62552 575.169 5.34662Z" fill="#E34123"/>
<path d="M574.48 4.65781C568.865 10.4317 569.453 19.558 574.637 25.369C578.639 29.8551 585.018 31.5879 590.709 29.5878C596.622 27.5096 600.507 22.124 601.157 15.9579C601.806 9.80732 598.649 4.03144 592.977 1.47912C586.793 -1.3054 579.345 -0.10925 574.48 4.65781C573.581 5.53785 574.962 6.91743 575.859 6.03739C579.604 2.36697 585.117 1.07129 590.143 2.50356C595.068 3.90655 598.877 7.95748 599.263 13.1733C599.667 18.6409 597.024 24.1104 592.189 26.8013C587.772 29.26 582.249 28.9731 578.165 25.972C571.92 21.3825 570.242 11.8172 575.861 6.03934C576.735 5.13588 575.356 3.7563 574.48 4.65781ZM360.665 42.4079C356.517 46.5486 355.774 53.5479 358.641 58.6623C366.085 71.9449 384.268 67.2715 385.693 52.8669C387.084 38.8253 369.654 33.4338 360.665 42.4079Z" fill="#E34123"/>
<path d="M359.975 41.7171C354.36 47.4911 354.947 56.6174 360.131 62.4284C364.133 66.9144 370.512 68.6472 376.203 66.6471C382.117 64.569 386.002 59.1833 386.651 53.0172C387.3 46.8666 384.143 41.0908 378.471 38.5384C372.289 35.7539 364.839 36.9501 359.975 41.7171C359.075 42.5972 360.456 43.9768 361.353 43.0967C365.098 39.4263 370.612 38.1306 375.638 39.5629C380.562 40.9659 384.371 45.0168 384.757 50.2327C385.161 55.7002 382.518 61.1698 377.683 63.8606C373.266 66.3193 367.743 66.0324 363.659 63.0313C357.414 58.4418 355.737 48.8765 361.355 43.0987C362.229 42.1972 360.852 40.8156 359.975 41.7171Z" fill="#E34123"/>
<path d="M581.89 17.4584C584.113 21.5991 590.771 19.3922 590.91 14.9978C591.056 10.3595 585.028 9.30193 582.405 12.4357C581.841 13.1326 581.492 13.9786 581.401 14.8705C581.309 15.7623 581.479 16.6616 581.89 17.4584Z" fill="white"/>
<path d="M581.049 17.9501C583.425 22.2586 589.911 20.922 591.554 16.6974C592.382 14.5627 591.669 12.0708 589.833 10.7244C588.107 9.45804 585.703 9.39364 583.784 10.2249C580.821 11.5089 579.567 15.0798 581.049 17.9501C581.624 19.0663 583.31 18.0809 582.732 16.9647C582.5 16.4985 582.37 15.9884 582.35 15.468C582.33 14.9476 582.42 14.4288 582.615 13.9461C582.803 13.4855 583.095 13.0836 583.452 12.7421C583.52 12.6777 583.59 12.6153 583.663 12.5528C583.811 12.4221 583.676 12.5314 583.797 12.4474C584.05 12.2712 584.318 12.1165 584.597 11.985C584.739 11.9186 584.54 11.9967 584.747 11.9245C585.034 11.8222 585.329 11.7413 585.629 11.6825C585.677 11.6728 585.966 11.6357 585.775 11.6572C585.985 11.6337 586.196 11.622 586.409 11.622C587.085 11.624 587.784 11.782 588.339 12.0865C588.503 12.1762 588.661 12.2757 588.811 12.385C588.669 12.2816 588.872 12.4377 588.915 12.4748C589.064 12.6087 589.203 12.7528 589.332 12.906C589.402 12.9919 589.322 12.8923 589.313 12.8787C589.338 12.9138 589.365 12.9489 589.389 12.986C589.498 13.152 589.596 13.3247 589.683 13.5031C589.707 13.5597 589.726 13.6182 589.746 13.6768C589.804 13.8578 589.852 14.0422 589.888 14.229C589.927 14.4202 589.904 14.309 589.898 14.2641C589.908 14.3305 589.911 14.3988 589.917 14.4671C589.935 14.6934 589.935 14.9198 589.921 15.1461C589.917 15.1929 589.892 15.4212 589.902 15.3549C589.919 15.2417 589.884 15.4369 589.878 15.4603L589.837 15.6456C589.488 17.0428 588.261 18.1004 586.873 18.5004C586.637 18.5686 586.397 18.6213 586.155 18.6585C586.333 18.6331 586.063 18.6643 586.007 18.6682C585.781 18.6832 585.554 18.6845 585.328 18.6721C585.268 18.6682 584.948 18.6273 585.141 18.6585C584.818 18.608 584.502 18.5209 584.199 18.399C584.367 18.4692 584.074 18.3326 584.027 18.3053C583.882 18.2243 583.742 18.1357 583.606 18.0399C583.479 17.9501 583.706 18.1238 583.585 18.0243C583.224 17.7395 582.931 17.3783 582.726 16.9667C582.126 15.8661 580.441 16.8496 581.049 17.9501ZM367.766 55.7159C370.551 58.5687 374.668 57.0857 375.797 53.5499C376.326 51.8991 376.006 49.9458 374.805 48.695C372.462 46.2539 367.774 47.8599 366.705 50.8317C366.418 51.665 366.365 52.5611 366.552 53.4224C366.739 54.2836 367.159 55.0769 367.766 55.7159Z" fill="white"/>
<path d="M367.076 56.4066C368.769 58.1023 371.179 58.6662 373.393 57.6906C375.581 56.7266 377.003 54.3597 377.018 51.9967C377.036 49.5029 375.45 47.0891 372.911 46.6325C370.783 46.25 368.464 47.0462 366.98 48.6131C364.917 50.7907 365.036 54.2504 367.076 56.4066C367.94 57.3198 369.319 55.9383 368.455 55.027C367.191 53.6904 367.097 51.5888 368.137 50.2366C368.967 49.1555 370.553 48.4414 371.973 48.4804C372.617 48.4979 373.328 48.7145 373.798 49.0892C374.499 49.6473 374.916 50.5 375.037 51.3781C375.158 52.2581 374.978 53.1928 374.588 53.9499C374.244 54.6434 373.721 55.2322 373.073 55.6554C372.383 56.114 371.554 56.315 370.731 56.2232C370.354 56.166 369.987 56.0563 369.64 55.8973C369.201 55.6731 368.802 55.3784 368.458 55.0251C367.567 54.1372 366.188 55.5168 367.076 56.4066Z" fill="white"/>
<path d="M603.988 205.564L590.436 190.271C589.976 189.751 589.634 189.245 588.978 189.047C588.469 188.893 588.174 188.932 587.764 189.321C587.025 190.024 586.324 190.782 585.608 191.509L563.754 213.688C563.01 214.443 564.141 215.639 564.885 214.885L589.039 190.371L588.262 190.589C588.81 190.756 588.9 191.008 589.306 191.467L602.859 206.761C603.563 207.558 604.692 206.36 603.988 205.564Z" fill="black"/>
<path d="M666.98 312.36L507.833 345.915C507.336 346.02 506.824 346.027 506.325 345.936C505.826 345.845 505.349 345.657 504.923 345.384C504.497 345.111 504.13 344.757 503.842 344.344C503.555 343.93 503.352 343.464 503.246 342.973L481.194 240.654C481.088 240.163 481.081 239.656 481.173 239.163C481.265 238.669 481.455 238.198 481.731 237.777C482.007 237.355 482.365 236.992 482.783 236.707C483.201 236.423 483.672 236.222 484.169 236.118L643.316 202.562C644.318 202.351 645.364 202.542 646.224 203.094C647.084 203.645 647.688 204.512 647.902 205.503L669.955 307.825C670.061 308.316 670.068 308.823 669.976 309.317C669.883 309.81 669.694 310.281 669.417 310.702C669.141 311.123 668.784 311.487 668.365 311.771C667.947 312.055 667.477 312.256 666.98 312.36Z" fill="white"/>
<path d="M665.415 306.751L520.196 337.37C515.618 338.336 510.976 339.156 506.431 340.273C505.705 340.452 507.97 340.231 506.852 340.18C506.95 340.184 508.352 340.516 507.478 340.231L508.299 340.591C508.112 340.501 507.933 340.396 507.762 340.277C507.837 340.287 508.923 341.208 508.258 340.564L508.805 341.237C508.588 340.83 508.596 340.869 508.825 341.355C509.237 342.081 508.949 341.654 508.905 341.373C508.817 340.812 508.664 340.254 508.545 339.697L486.986 239.667C486.951 239.498 486.926 239.322 486.877 239.157C486.743 238.713 486.941 240.786 486.994 239.688C486.918 241.246 486.796 240.728 486.943 240.307L486.579 241.12C486.671 240.934 486.777 240.757 486.896 240.588C486.755 241.157 486.106 241.56 486.606 241.079C485.816 241.645 485.682 241.775 486.206 241.467C485.339 241.793 485.127 241.896 485.567 241.773C485.861 241.754 486.19 241.636 486.479 241.574L643.216 208.526C643.712 208.422 644.216 208.334 644.708 208.212C645.088 208.117 645.375 208.226 643.973 208.301C645.116 208.239 642.792 208.003 643.518 208.214C644.251 208.427 642.161 207.469 643.124 208.04C643.914 208.507 642.729 207.741 642.675 207.694C643.535 208.418 641.945 206.538 642.498 207.526C642.402 207.353 642.106 206.185 642.233 207.068L642.245 207.122C642.543 208.98 643.043 210.829 643.441 212.667L664.174 308.865C664.207 309.02 664.231 309.185 664.276 309.336L664.284 309.371V309.375L664.156 308.477C664.141 309.107 664.184 308.906 664.284 307.876C664.119 308.556 664.094 307.765 664.57 307.366L664.421 307.637C664.086 308.136 664.203 307.988 664.77 307.193C664.525 307.482 663.896 307.773 665.221 306.865C664.274 307.511 666.558 306.458 665.415 306.751C662.435 307.511 660.338 310.952 661.307 313.908C662.301 316.947 665.35 318.787 668.543 317.971C672.724 316.904 675.877 313.107 675.918 308.793C675.926 307.88 675.761 306.96 675.581 306.062C675.435 305.35 675.275 304.643 675.122 303.935L657.544 222.378C656.228 216.271 655.097 210.086 653.587 204.021C653.272 202.769 652.71 201.592 651.933 200.556C651.156 199.52 650.179 198.646 649.059 197.985C646.789 196.655 644.257 196.474 641.72 196.955C641.341 197.027 640.965 197.114 640.588 197.194L483.278 230.365C482.263 230.581 481.402 230.837 480.415 231.351C476.198 233.548 474.668 238.057 475.58 242.487C476.033 244.687 476.525 246.876 477 249.072L497.199 342.789C497.318 343.345 497.422 343.91 497.56 344.465C498.175 346.883 499.7 348.978 501.823 350.324C504.121 351.798 506.797 352.021 509.425 351.522C510.641 351.292 511.849 351.012 513.059 350.756L668.543 317.971C671.557 317.335 673.59 313.685 672.651 310.816C671.623 307.67 668.645 306.07 665.415 306.751Z" fill="white"/>
<path d="M666.98 312.36L507.833 345.915C507.336 346.02 506.824 346.027 506.325 345.936C505.826 345.845 505.349 345.657 504.923 345.384C504.497 345.111 504.13 344.757 503.842 344.344C503.555 343.93 503.352 343.464 503.246 342.973L481.194 240.654C481.088 240.163 481.081 239.656 481.173 239.163C481.265 238.669 481.455 238.198 481.731 237.777C482.007 237.355 482.365 236.992 482.783 236.707C483.201 236.423 483.672 236.222 484.169 236.118L643.316 202.562C643.812 202.458 644.325 202.451 644.824 202.542C645.323 202.633 645.799 202.821 646.225 203.094C646.651 203.367 647.019 203.721 647.306 204.134C647.594 204.548 647.797 205.014 647.902 205.505L669.955 307.825C670.061 308.316 670.068 308.823 669.976 309.317C669.883 309.81 669.694 310.281 669.417 310.702C669.141 311.123 668.784 311.487 668.365 311.771C667.947 312.055 667.477 312.256 666.98 312.36Z" fill="#E34123"/>
<path d="M507.017 346.97C506.084 346.97 505.172 346.702 504.39 346.198C503.854 345.858 503.393 345.415 503.032 344.896C502.671 344.378 502.418 343.793 502.287 343.177L480.235 240.856C480.1 240.241 480.09 239.605 480.206 238.985C480.322 238.366 480.561 237.776 480.91 237.249C481.255 236.72 481.702 236.264 482.227 235.907C482.751 235.55 483.342 235.299 483.965 235.169L643.112 201.614C643.734 201.48 644.377 201.47 645.003 201.585C645.63 201.699 646.227 201.936 646.759 202.281C647.844 202.978 648.591 204.05 648.861 205.303L670.914 307.624C671.18 308.867 670.937 310.163 670.238 311.23C669.539 312.296 668.442 313.045 667.186 313.312L508.037 346.866C507.702 346.936 507.36 346.971 507.017 346.97ZM644.124 203.447C643.921 203.447 643.718 203.469 643.52 203.511L484.373 237.066C484.001 237.143 483.649 237.293 483.337 237.505C483.025 237.718 482.758 237.99 482.553 238.306C482.346 238.619 482.204 238.97 482.135 239.339C482.067 239.707 482.073 240.085 482.153 240.451L504.205 342.771C504.366 343.518 504.811 344.156 505.456 344.571C506.101 344.986 506.868 345.13 507.627 344.967L666.774 311.411C667.145 311.335 667.497 311.186 667.81 310.973C668.122 310.761 668.388 310.489 668.594 310.174C668.801 309.86 668.943 309.509 669.011 309.14C669.08 308.772 669.074 308.393 668.994 308.027L646.942 205.706C646.804 205.068 646.449 204.496 645.936 204.085C645.423 203.673 644.784 203.448 644.124 203.447Z" fill="#E34123"/>
<path d="M617.014 294.414C616.151 297.439 614.308 298.875 611.916 299.243C603.935 300.407 589.738 289.817 584.424 286.714C581.188 291.601 573.286 307.835 565.501 310.415C563.187 311.171 560.893 310.725 558.736 308.397C556.716 306.206 552.638 303.975 552.206 301.357C551.834 299.146 554.206 295.577 555.167 293.715C557.834 288.518 561.246 283.766 564.246 278.762C564.854 277.753 565.462 276.764 566.089 275.775C563.227 273.991 560.383 272.168 557.56 270.306C554.304 268.172 548.833 266.31 546.108 263.963C542.912 261.229 545.186 258.94 547.108 255.72C548.833 252.831 550.559 247.633 554.089 246.741C556.697 246.101 560.658 248.331 562.874 249.436C568.09 252.074 572.6 255.837 577.659 258.766C580.757 253.956 583.032 248.68 586.424 244.045C587.895 242.066 590.405 238.304 593.032 237.722C596.582 236.927 600.503 240.786 603.366 242.59C606.543 244.607 609.622 245.616 608.033 249.495C606.661 252.811 602.641 256.923 600.719 260.278C599.111 263.11 597.444 265.942 595.758 268.735C596.699 269.297 597.621 269.859 598.542 270.441C603.504 273.564 608.72 276.279 613.485 279.732C615.191 280.953 618.936 283.068 619.622 285.201C620.424 287.722 617.816 291.543 617.014 294.414Z" fill="white"/>
<path d="M616.067 294.156C613.824 301.508 604.766 297.395 600.119 295.046C594.811 292.362 590.026 288.88 584.918 285.878C584.447 285.601 583.863 285.789 583.577 286.225C579.061 293.099 575.7 300.911 569.576 306.629C568.247 307.87 566.699 309.084 564.909 309.579C561.805 310.436 560.115 308.176 558.014 306.388C556.459 305.065 553.426 303.33 553.155 301.105C552.895 298.966 554.738 296.545 555.712 294.765C559.171 288.44 563.083 282.362 566.935 276.264C567.223 275.808 567.021 275.211 566.584 274.937C562.258 272.237 558.111 269.258 553.504 267.039C551.587 266.114 549.624 265.228 547.845 264.053C547.014 263.502 546.051 262.825 545.661 261.88C545.282 260.963 545.661 260.044 546.104 259.219C547.026 257.511 548.149 255.934 549.032 254.198C549.888 252.511 550.712 250.711 551.983 249.281C553.336 247.759 554.852 247.336 556.828 247.862C558.785 248.381 560.587 249.361 562.377 250.274C567.588 252.935 572.127 256.659 577.163 259.603C577.388 259.728 577.654 259.762 577.904 259.697C578.154 259.632 578.369 259.474 578.504 259.256C581.263 254.931 583.402 250.247 586.257 245.98C587.361 244.33 588.544 242.664 589.867 241.178C591.171 239.716 592.713 238.267 594.836 238.668C596.911 239.06 598.739 240.482 600.399 241.688C601.968 242.829 603.586 243.825 605.229 244.855C606.929 245.92 607.945 247.03 607.143 249.078C606.384 251.015 604.982 252.738 603.731 254.384C602.294 256.275 600.821 258.133 599.639 260.195C598.091 262.896 596.514 265.579 594.907 268.246C594.78 268.469 594.746 268.732 594.812 268.979C594.877 269.227 595.037 269.439 595.258 269.572C601.407 273.256 607.588 276.898 613.508 280.932C615.269 282.133 618.661 283.756 618.785 286.169C618.854 287.517 618.183 288.936 617.665 290.149C617.106 291.473 616.479 292.775 616.067 294.156C615.71 295.356 617.602 295.868 617.957 294.672C618.795 291.853 620.905 289.063 620.746 286.023C620.601 283.273 617.836 281.504 615.761 280.102C609.402 275.802 602.839 271.846 596.25 267.899L596.601 269.225C598.209 266.558 599.786 263.874 601.333 261.174C602.547 259.055 604.068 257.154 605.543 255.208C607.731 252.322 611.526 247.621 607.878 244.38C606.329 243.003 604.351 242.148 602.668 240.945C600.79 239.605 598.968 238.123 596.803 237.251C594.831 236.457 592.74 236.417 590.926 237.611C589.124 238.798 587.783 240.565 586.516 242.272C582.769 247.322 580.177 252.999 576.808 258.279L578.149 257.932C573.113 254.987 568.574 251.264 563.364 248.602C559.911 246.839 555.269 244.087 551.653 246.917C550.037 248.182 548.981 250.038 548.049 251.82C547.041 253.745 545.971 255.638 544.839 257.495C543.815 259.184 542.99 261.139 544.033 263.025C545.1 264.953 547.388 266.145 549.283 267.131C551.679 268.376 554.202 269.402 556.514 270.802C559.585 272.662 562.544 274.714 565.589 276.615L565.238 275.288C561.413 281.345 557.501 287.377 554.081 293.669C552.924 295.798 551.345 298.089 551.192 300.575C551.038 303.097 553.218 304.941 554.991 306.413C556.034 307.28 557.083 308.12 558.038 309.084C559.138 310.195 560.397 311.167 561.956 311.539C564.18 312.071 566.423 311.324 568.284 310.122C572.235 307.569 575.131 303.491 577.69 299.652C580.388 295.604 582.598 291.266 585.267 287.204L583.926 287.552C588.232 290.083 592.295 292.99 596.672 295.416C600.978 297.804 606.343 300.721 611.467 300.265C614.82 299.966 617.01 297.779 617.957 294.672C618.326 293.475 616.432 292.963 616.067 294.156Z" fill="white"/>
<path d="M172.977 287.253L242.111 239.206C243.804 238.029 245.135 236.589 245.697 234.544C246.212 232.677 245.98 230.191 244.911 228.533C242.768 225.21 237.816 223.243 234.232 225.735L165.098 273.782C163.405 274.96 162.074 276.399 161.512 278.445C160.997 280.311 161.229 282.797 162.298 284.455C164.443 287.778 169.393 289.745 172.977 287.253Z" fill="white"/>
<path d="M218.476 268.758C226.564 278.688 233.233 289.749 238.368 301.475C246.165 319.316 250.421 338.5 250.899 357.962C251.336 376.12 247.991 396.157 233.159 408.731C225.701 415.054 216.318 418.006 206.605 418.012C190.381 418.02 172.862 409.874 173.129 391.414C173.313 378.866 183.827 369.224 193.509 361.233C170.858 366.299 147.971 371.391 124.76 371.254C101.549 371.118 77.6449 365.285 59.6552 350.624C36.1768 331.488 25.8414 297.694 34.6022 268.71C35.7785 264.832 37.2797 261.061 39.0899 257.436C75.7269 183.872 177.543 218.498 218.476 268.758Z" fill="white"/>
<path d="M217.788 269.447C230.269 284.822 239.329 302.852 244.589 321.922C247.273 331.636 248.964 341.596 249.639 351.65C250.202 360.121 250.138 368.707 248.692 377.093C247.334 384.971 244.741 392.704 240.246 399.367C235.383 406.573 228.385 412.189 220.094 414.923C212.545 417.413 204.233 417.677 196.489 415.939C190.017 414.486 183.646 411.53 179.268 406.419C174.503 400.857 172.985 392.943 174.893 385.921C177.098 377.807 183.318 371.403 189.439 365.973C191 364.589 192.594 363.247 194.202 361.919C195.004 361.256 194.124 360.094 193.254 360.289C172.722 364.879 152.022 369.509 130.914 370.191C112.848 370.777 94.3297 368.298 77.7974 360.689C69.903 357.056 62.4964 352.276 56.2 346.266C50.4499 340.778 45.652 334.352 41.9038 327.352C34.4328 313.404 31.1841 297.183 32.9674 281.446C34.6845 266.29 41.5584 251.742 51.6128 240.312C59.3577 231.495 69.2161 224.787 80.2637 220.819C91.2195 216.895 102.956 215.641 114.538 216.258C126.824 216.911 138.961 219.639 150.553 223.703C162.447 227.872 173.832 233.501 184.44 240.301C194.618 246.824 204.128 254.468 212.401 263.292C214.266 265.282 216.063 267.335 217.788 269.447C218.582 270.42 219.956 269.033 219.167 268.068C211.521 258.7 202.43 250.56 192.624 243.507C182.195 236.019 170.933 229.767 159.064 224.873C147.335 220.029 135.01 216.556 122.401 215.004C110.468 213.535 98.2066 213.869 86.523 216.864C75.0931 219.795 64.4417 225.37 55.718 233.337C44.9827 243.142 36.8464 256.488 33.0728 270.514C28.8817 286.095 30.0095 302.928 35.584 318.02C41.2599 333.393 51.4743 346.749 65.1305 355.868C80.2169 365.942 98.3335 370.714 116.29 371.919C137.197 373.323 158.092 369.837 178.48 365.527C183.583 364.438 188.68 363.32 193.771 362.171L192.823 360.54C186.155 366.051 179.258 372.029 175.219 379.827C171.565 386.886 171.059 395.346 174.487 402.602C180.876 416.128 198.584 420.309 212.225 418.644C221.343 417.53 229.799 413.624 236.336 407.14C242.29 401.233 246.32 393.692 248.698 385.699C251.092 377.651 251.925 369.177 251.914 360.806C251.9 350.527 250.743 340.226 248.608 330.173C244.31 309.929 235.838 290.5 223.591 273.792C222.163 271.848 220.688 269.94 219.167 268.068C218.375 267.093 217.003 268.482 217.788 269.447Z" fill="black"/>
<path d="M168.323 448.769L175.781 452.197C177.115 452.812 179.061 452.685 179.785 451.148C186.751 436.391 192.412 421.052 196.701 405.307C197.69 401.668 192.044 400.116 191.056 403.751C186.922 419.013 181.459 433.884 174.729 448.194L178.733 447.145L171.276 443.716C169.841 443.057 168.124 443.309 167.272 444.766C166.536 446.027 166.881 448.104 168.323 448.769ZM210.83 332.589L262.196 251.703C264.387 248.251 263.029 242.949 259.396 241.03C255.541 238.994 251.057 240.144 248.717 243.828L197.351 324.715C195.16 328.167 196.518 333.469 200.151 335.388C204.006 337.424 208.49 336.273 210.83 332.589ZM219.891 405.079C216.135 411.735 212.541 418.771 213.717 426.635C214.203 429.876 215.637 433.051 217.932 435.417C220.626 438.196 224.412 439.518 228.222 439.684C232.915 439.886 237.381 438.168 241.572 436.255L237.168 433.73L238.027 441.357C238.204 442.927 239.246 444.282 240.954 444.282C242.399 444.282 244.058 442.936 243.88 441.357L243.022 433.73C242.762 431.421 240.762 430.226 238.618 431.204C235.102 432.809 231.145 434.309 227.208 433.759C223.873 433.293 221.491 431.343 220.281 428.556C219.011 425.627 219.056 422.335 219.828 419.285C220.851 415.255 222.919 411.629 224.946 408.035C226.798 404.747 221.742 401.795 219.891 405.079Z" fill="white"/>
<path d="M144.718 243.678C145.84 249.197 144.275 255.174 141.899 260.156C137.61 269.15 127.634 275.588 117.464 273.056C113.398 272.044 109.41 270.038 106.503 266.974C92.6982 252.42 104.772 224.21 125.372 226.232C134.629 227.143 142.867 234.569 144.718 243.678Z" fill="#FCF1D5"/>
<path d="M143.778 243.937C144.892 249.774 143.134 256.157 140.232 261.243C137.764 265.568 133.909 269.17 129.302 271.12C119.929 275.085 108.514 270.593 103.904 261.633C97.2502 248.702 105.4 229.873 120.12 227.359C130.894 225.519 141.546 233.436 143.778 243.937C144.039 245.164 145.92 244.645 145.659 243.419C143.462 233.087 133.721 225.066 123.111 225.156C114.768 225.226 107.519 230.347 103.449 237.434C99.4687 244.366 98.2902 253.202 101.348 260.706C105.332 270.488 116.573 276.582 126.949 273.959C132.818 272.477 137.905 268.48 141.175 263.444C144.894 257.717 146.95 250.193 145.659 243.419C145.423 242.188 143.544 242.709 143.778 243.937ZM157.227 261.449C156.722 262.703 156.211 264.072 156.575 265.373C157.075 267.151 158.973 268.088 160.677 268.809C163.336 269.936 166.302 271.079 169.032 270.137C171.145 269.41 172.69 267.52 173.545 265.455C175.691 260.264 173.463 253.563 168.481 250.966C166.561 249.965 164.542 249.743 162.62 250.819C161.036 251.707 160.651 253.36 159.972 254.901C159.022 257.069 158.107 259.252 157.227 261.449Z" fill="#FCF1D5"/>
<path d="M156.287 261.19C155.45 263.29 154.993 265.547 156.618 267.395C157.978 268.944 160.171 269.7 162.045 270.41C164.318 271.27 166.909 271.898 169.291 271.077C171.293 270.387 172.868 268.834 173.88 267.003C175.761 263.602 175.738 259.425 174.204 255.903C172.68 252.409 169.131 248.963 165.061 249.14C162.446 249.253 160.649 250.767 159.668 253.095C158.531 255.79 157.379 258.477 156.287 261.19C155.818 262.354 157.703 262.859 158.168 261.709C158.998 259.649 159.855 257.601 160.739 255.564C161.362 254.131 161.773 252.348 163.272 251.578C166.558 249.887 170.206 252.771 171.82 255.509C173.326 258.064 173.812 261.237 172.987 264.1C172.526 265.697 171.644 267.255 170.335 268.31C168.776 269.566 166.811 269.708 164.917 269.271C162.985 268.827 160.925 268.047 159.225 267.017C158.486 266.568 157.764 265.978 157.516 265.116C157.19 263.984 157.756 262.742 158.168 261.709C158.632 260.541 156.745 260.036 156.287 261.19Z" fill="#FCF1D5"/>
<path d="M138.933 255.461C138.931 251.98 142.248 249.583 145.655 251.202C146.582 251.642 147.44 252.491 147.419 253.516C147.399 254.445 146.683 255.195 145.981 255.806C144.447 257.139 142.763 258.287 140.962 259.228C140.451 258.925 140.011 258.514 139.674 258.024C139.337 257.534 139.11 256.977 139.009 256.391C138.959 256.083 138.934 255.772 138.933 255.461Z" fill="#E24122"/>
<path d="M139.909 255.461C139.918 254.452 140.256 253.479 140.913 252.779C141.225 252.438 141.603 252.164 142.023 251.972C142.443 251.78 142.898 251.674 143.36 251.662C144.308 251.64 145.633 251.987 146.232 252.877C146.507 253.284 146.504 253.666 146.223 254.123C145.881 254.675 145.321 255.1 144.827 255.509C143.479 256.617 142.019 257.581 140.471 258.386H141.456C140.4 257.744 139.926 256.666 139.909 255.461C139.891 254.207 137.94 254.203 137.957 255.461C137.973 256.588 138.24 257.693 138.906 258.618C139.232 259.07 139.604 259.451 140.049 259.784C140.248 259.932 140.461 260.1 140.703 260.166C141.134 260.285 141.497 260.049 141.858 259.852C142.883 259.294 143.869 258.667 144.81 257.976C145.69 257.331 146.621 256.652 147.35 255.835C148.123 254.971 148.638 253.828 148.273 252.664C147.963 251.675 147.167 250.882 146.258 250.414C144.56 249.54 142.525 249.458 140.833 250.388C138.997 251.399 137.979 253.405 137.957 255.461C137.944 256.716 139.895 256.716 139.909 255.461Z" fill="#E24122"/>
<path d="M161.502 241.73C169.724 250.176 154.642 265.026 146.314 255.308C141.302 249.458 146.258 240.254 153.26 239.113C156.218 238.631 159.412 239.585 161.502 241.73Z" fill="#E24122"/>
<path d="M160.811 242.42C165.625 247.455 161.163 255.209 155.399 257.083C152.185 258.128 148.972 257.091 146.866 254.454C144.312 251.256 145.058 246.773 147.475 243.731C148.855 241.993 150.763 240.665 152.94 240.166C154.336 239.856 155.788 239.9 157.163 240.294C158.537 240.687 159.792 241.418 160.811 242.42C161.701 243.307 163.083 241.929 162.191 241.041C158.138 237.003 151.717 237.211 147.524 240.866C144.014 243.926 142.168 249.146 144.08 253.563C145.78 257.491 149.971 259.967 154.216 259.355C157.972 258.815 161.327 256.215 163.231 252.996C165.531 249.105 165.387 244.384 162.191 241.041C161.321 240.133 159.943 241.511 160.811 242.42Z" fill="#E24122"/>
<path d="M156.991 257.931C166.128 267.315 149.368 283.817 140.115 273.019C134.545 266.52 140.053 256.289 147.834 255.022C151.12 254.487 154.669 255.546 156.991 257.931Z" fill="#E24122"/>
<path d="M156.302 258.622C161.711 264.279 156.724 272.988 150.24 275.096C146.632 276.27 143.021 275.102 140.654 272.148C137.772 268.552 138.603 263.501 141.331 260.078C142.878 258.136 145.015 256.648 147.452 256.089C149.021 255.739 150.653 255.788 152.199 256.231C153.745 256.673 155.156 257.495 156.302 258.622C157.192 259.509 158.573 258.13 157.682 257.243C153.223 252.799 146.152 253.025 141.538 257.048C137.676 260.414 135.624 266.161 137.727 271.026C139.592 275.344 144.197 278.082 148.866 277.413C153.013 276.818 156.716 273.952 158.817 270.396C161.348 266.116 161.198 260.925 157.68 257.245C156.812 256.332 155.434 257.713 156.302 258.622Z" fill="#E24122"/>
<path d="M145.542 254.876C142.279 249.476 144.63 242.617 149.729 239.3C150.777 238.617 149.801 236.929 148.743 237.617C142.771 241.504 140.028 249.526 143.856 255.86C144.506 256.933 146.193 255.954 145.542 254.876Z" fill="black"/>
<path d="M156.749 270.71C161.067 272.251 165.742 274.708 170.429 273.189C173.463 272.206 175.496 269.741 176.643 266.857C178.809 261.416 177.855 253.762 172.626 250.41C168.119 247.52 162.772 246.213 157.473 245.919C154.964 245.78 154.972 249.68 157.473 249.819C161.35 250.033 165.254 250.88 168.723 252.668C171.164 253.926 172.579 255.067 173.33 257.691C174.434 261.553 173.693 267.489 169.769 269.289C166.144 270.95 161.319 268.212 157.787 266.953C155.416 266.104 154.396 269.872 156.749 270.71Z" fill="#E24122"/>
<path d="M138.633 263.823C140.703 257.473 148.349 253.501 154.556 256.594C157.738 258.179 159.853 261.383 159.865 264.967C159.877 268.84 157.814 272.998 154.983 275.576C154.053 276.422 155.436 277.799 156.363 276.955C161.377 272.391 163.927 263.84 159.44 258.107C155.534 253.117 148.324 252.358 143.025 255.502C140.056 257.256 137.826 260.029 136.752 263.304C136.361 264.499 138.244 265.012 138.633 263.823ZM116.007 236.909L122.836 266.096C123.197 267.635 124.955 268.546 126.436 268.14C128.012 267.707 128.842 266.085 128.481 264.542L121.652 235.355C121.291 233.816 119.533 232.906 118.052 233.311C116.473 233.744 115.644 235.367 116.007 236.909Z" fill="black"/>
<path d="M111.254 260.069L134.683 242.994C135.959 242.063 136.588 240.453 135.733 238.992C134.997 237.734 133.013 237.007 131.729 237.943L108.3 255.018C107.024 255.948 106.395 257.559 107.25 259.02C107.986 260.277 109.97 261.005 111.254 260.069ZM159.139 258.745C162.376 257.147 164.684 254.148 165.724 250.722C166.922 246.777 166.21 242.604 164.511 238.92C163.986 237.781 162.304 238.772 162.827 239.905C164.31 243.118 164.884 246.775 163.844 250.205C162.944 253.175 160.952 255.681 158.156 257.062C157.03 257.617 158.017 259.3 159.139 258.745Z" fill="black"/>
<path d="M94.6083 251.578C98.8853 249.645 102.226 245.692 103.408 241.149C104.696 236.205 103.412 231.049 100.316 227.063C99.6697 226.23 98.2356 226.384 97.5566 227.063C96.7351 227.884 96.9088 228.986 97.5566 229.821C99.8394 232.761 100.581 236.858 99.5604 240.419C98.5517 243.939 95.9429 246.716 92.6377 248.21C91.6777 248.645 91.4455 250.037 91.9372 250.878C92.5167 251.865 93.6445 252.013 94.6083 251.578Z" fill="#E24122"/>
<path d="M215.688 351.307C203.16 355.376 192.087 363.311 184.099 373.772C181.798 376.789 179.776 380.008 178.056 383.39C177.488 384.505 179.17 385.494 179.74 384.375C185.552 372.966 194.869 363.514 206.155 357.465C209.371 355.744 212.734 354.313 216.205 353.188C217.397 352.802 216.888 350.918 215.688 351.307ZM192.073 375.628C185.917 382.056 181.876 390.212 180.493 399.002C180.304 400.231 182.183 400.759 182.374 399.521C183.675 391.06 187.542 383.202 193.452 377.007C194.321 376.1 192.943 374.72 192.073 375.628ZM191.933 389.371C190.462 391.26 189.388 393.426 188.776 395.74C188.163 398.054 188.025 400.468 188.37 402.836C188.444 403.359 189.107 403.644 189.57 403.517C190.13 403.363 190.327 402.84 190.251 402.318C189.974 400.283 190.102 398.214 190.627 396.228C191.153 394.243 192.065 392.381 193.312 390.749C193.638 390.33 193.714 389.78 193.312 389.371C192.98 389.031 192.256 388.955 191.933 389.371ZM85.6603 297.694C79.8517 298.981 74.8879 302.905 71.9065 308.006C68.652 313.576 68.0822 320.313 69.7368 326.493C73.2158 339.489 85.752 347.948 98.696 349.407C105.412 350.164 112.502 348.845 117.923 344.643C122.317 341.238 126.161 335.472 125.708 329.68C125.527 327.347 124.586 324.66 122.401 323.482C119.985 322.18 117.158 323.383 115.798 325.614C112.645 330.787 117.583 337.197 122.159 339.426C126.875 341.724 132.678 341.511 136.793 338.081C140.79 334.748 142.568 328.988 141.378 323.956C141.079 322.719 140.597 321.533 139.948 320.438C139.313 319.356 137.626 320.337 138.264 321.423C140.593 325.395 140.143 330.487 137.62 334.265C135.056 338.106 130.445 339.721 125.989 338.724C121.513 337.724 116.58 333.8 116.854 328.754C116.982 326.38 119.499 323.59 121.882 325.468C123.54 326.776 123.934 329.378 123.735 331.345C123.207 336.577 119.696 341.273 115.373 344.076C110.401 347.297 104.28 348.132 98.4795 347.434C87.3246 346.088 76.2869 339.079 72.3319 328.25C70.1719 322.334 70.1251 315.582 73.0714 309.921C75.7445 304.785 80.478 300.836 86.1735 299.574C87.4046 299.303 86.8856 297.423 85.6603 297.694Z" fill="black"/>
<path d="M100.31 314.28C95.6873 313.617 90.9226 317.359 91.2738 322.221C91.4358 324.45 92.5304 326.601 94.2845 327.999C95.1693 328.706 96.2051 329.199 97.3115 329.441C98.418 329.683 99.5654 329.668 100.665 329.395C101.91 329.099 103.066 328.509 104.037 327.675C105.008 326.842 105.765 325.788 106.245 324.602C106.444 324.11 106.029 323.535 105.564 323.402C105.01 323.242 104.559 323.597 104.364 324.083C103.104 327.209 98.9126 328.66 96.0444 326.872C93.0942 325.033 92.2338 320.783 94.6415 318.164C95.9215 316.774 97.8805 315.885 99.7926 316.158C100.317 316.234 100.835 316.029 100.993 315.477C101.123 315.023 100.831 314.354 100.31 314.28Z" fill="#FCF1D5"/>
<path d="M249.484 363.807C251.697 360.164 254.424 356.859 257.581 353.994C259.177 352.548 260.878 351.222 262.67 350.029C264.262 348.972 266.155 347.545 268.077 347.225C269.283 347.024 270.174 347.644 270.202 348.918C270.225 350.06 269.515 351.098 268.926 352.022C267.685 353.96 266.362 355.844 264.961 357.67C262.119 361.369 258.982 364.833 255.581 368.027L256.961 369.406C259.47 366.805 262.293 364.526 265.365 362.621C266.879 361.687 268.448 360.846 270.065 360.103C271.064 359.645 274.008 358.04 274.654 359.735C275.277 361.365 273.002 363.109 272.049 364.097L258.873 377.787C258.001 378.694 259.341 380.032 260.253 379.166C263.115 376.445 266.635 374.255 270.457 373.179C271.327 372.933 272.525 372.658 273.359 373.175C274.233 373.715 274.367 374.848 274.166 375.767C273.755 377.643 272.163 379.404 270.99 380.864C266.187 386.829 260.012 391.543 252.99 394.605C248.854 396.405 243.143 398.289 239.455 394.587C238.567 393.696 237.188 395.075 238.076 395.966C241.707 399.611 247.09 398.936 251.502 397.294C255.893 395.655 260.021 393.386 263.757 390.556C267.439 387.777 270.714 384.495 273.485 380.808C274.779 379.086 276.301 377.114 276.203 374.84C276.119 372.871 274.824 371.258 272.832 370.999C270.401 370.681 267.741 371.96 265.62 373.015C263.147 374.261 260.874 375.869 258.875 377.785L260.255 379.164L271.066 367.933C272.641 366.297 274.508 364.719 275.799 362.841C276.722 361.498 277.105 359.585 276.01 358.216C274.896 356.82 273 356.911 271.452 357.424C269.491 358.075 267.587 359.086 265.794 360.1C262.029 362.241 258.59 364.912 255.581 368.027C254.705 368.93 256.048 370.267 256.961 369.406C261.636 365.008 265.815 360.11 269.421 354.801C270.469 353.261 271.784 351.597 272.081 349.709C272.33 348.116 271.78 346.377 270.276 345.604C268.758 344.824 266.99 345.366 265.55 346.061C262.153 347.701 258.988 350.086 256.204 352.611C252.928 355.593 250.099 359.031 247.802 362.818C247.145 363.896 248.832 364.877 249.484 363.807ZM249.476 246.246C248.618 244.127 248.754 241.859 249.691 239.784C250.512 237.964 251.58 236.139 253.111 234.828C254.067 234.011 252.682 232.636 251.732 233.45C249.993 234.936 248.747 237.065 247.855 239.146C246.815 241.568 246.592 244.29 247.593 246.765C247.79 247.253 248.243 247.598 248.793 247.446C249.258 247.319 249.673 246.738 249.476 246.246Z" fill="black"/>
<path d="M251.935 245.351C256.337 240.715 259.012 234.707 259.509 228.335C259.607 227.083 257.656 227.09 257.558 228.335C257.08 234.194 254.608 239.712 250.555 243.972C249.691 244.881 251.068 246.262 251.935 245.351ZM256.9 245.418C260.466 241.338 262.578 236.191 262.904 230.784C262.98 229.53 261.029 229.534 260.953 230.784C260.65 235.679 258.74 240.338 255.521 244.039C254.698 244.981 256.071 246.365 256.9 245.418ZM259.979 247.313C263.518 243.66 265.732 238.929 266.268 233.873C266.325 233.348 265.778 232.898 265.292 232.898C264.717 232.898 264.373 233.346 264.317 233.873C263.825 238.393 261.765 242.682 258.6 245.934C257.722 246.835 259.101 248.216 259.979 247.313ZM260.705 253.577C264.529 248.965 267.35 243.608 268.99 237.847C269.333 236.638 267.45 236.121 267.109 237.328C265.572 242.769 262.922 247.832 259.326 252.196C258.532 253.159 259.905 254.546 260.705 253.577ZM243.09 238.512L250.028 232.209C250.419 231.854 250.389 231.19 250.028 230.831C249.843 230.652 249.596 230.552 249.339 230.552C249.081 230.552 248.834 230.652 248.649 230.831L241.711 237.133C241.32 237.488 241.35 238.153 241.711 238.512C241.896 238.691 242.143 238.791 242.4 238.791C242.658 238.791 242.905 238.691 243.09 238.512ZM242.786 232.849C246.119 229.313 250.152 226.508 254.627 224.612C255.113 224.405 255.219 223.691 254.977 223.278C254.684 222.777 254.128 222.722 253.642 222.929C249.017 224.901 244.85 227.81 241.404 231.47C240.546 232.383 241.923 233.766 242.786 232.849ZM239.642 231.063C243.046 227.231 247.252 224.195 251.962 222.172C252.444 221.964 252.557 221.252 252.311 220.838C252.017 220.339 251.465 220.279 250.977 220.489C246.117 222.588 241.777 225.727 238.263 229.684C237.432 230.62 238.807 232.005 239.642 231.063ZM235.834 229.353C239.484 225.379 244.008 222.308 249.049 220.38C250.212 219.939 249.707 218.054 248.53 218.5C243.166 220.524 238.346 223.768 234.452 227.974C233.606 228.896 234.981 230.279 235.834 229.353Z" fill="black"/>
<path d="M228.417 233.463C232.778 226.552 239.025 221.031 246.421 217.55C247.556 217.016 246.567 215.333 245.435 215.867C237.746 219.512 231.257 225.275 226.732 232.479C226.062 233.543 227.75 234.524 228.417 233.463Z" fill="black"/>
<path d="M53.948 235.14C52.7689 234.882 51.215 235.307 49.8718 236.276C47.5197 237.972 46.1786 240.966 43.5894 242.353C37.2584 245.74 29.4788 242.99 22.3617 243.896C14.2843 244.924 7.25834 251.002 4.25793 258.607C1.25549 266.213 2.05371 275.052 5.59302 282.421C7.36166 286.103 8.89326 289.973 11.3669 293.259C15.6133 298.9 25.4533 304.325 32.6879 302.509C36.2839 301.607 36.4521 296.864 37.4792 293.703C40.194 285.342 54.9792 243.106 55.7288 238.605C56.0753 236.514 55.2304 235.421 53.948 235.14Z" fill="#F6A50C"/>
<path d="M54.2154 234.157C49.8982 233.455 47.5967 237.263 45.0015 239.946C41.839 243.218 36.8491 243.214 32.6271 243.004C28.324 242.79 23.9743 242.283 19.7381 243.358C16.0529 244.295 12.6595 246.239 9.84748 248.791C3.6623 254.408 0.834097 262.762 1.48847 271.029C1.84504 275.518 3.18621 279.673 5.09059 283.724C6.94634 287.665 8.64002 291.795 11.5614 295.091C16.2353 300.365 24.1931 304.659 31.3832 303.771C32.9553 303.578 34.4403 303.144 35.5222 301.915C36.5473 300.75 37.076 299.236 37.4751 297.76C38.0161 295.759 38.5104 293.776 39.1688 291.811C42.542 281.749 46.0347 271.729 49.4342 261.675C51.1482 256.608 52.854 251.538 54.4869 246.444C55.0486 244.715 55.5862 242.978 56.0996 241.233C56.4906 239.881 56.9748 238.428 56.76 237.007C56.5433 235.564 55.6113 234.532 54.2154 234.157C52.9553 233.819 52.4164 235.781 53.6765 236.119C56.1644 236.787 53.5287 242.76 53.0485 244.278C51.6132 248.788 50.1356 253.283 48.6158 257.765C45.2851 267.672 41.8735 277.552 38.5084 287.447C37.9695 289.035 37.4306 290.621 36.9018 292.212C36.1948 294.338 35.8544 296.587 35.0683 298.68C34.5457 300.074 33.7495 301.186 32.2563 301.562C30.6194 301.976 28.8224 301.917 27.1672 301.638C23.5651 301.031 20.1494 299.421 17.1672 297.334C14.0472 295.15 11.7093 292.381 9.89408 289.033C7.89448 285.342 5.90501 281.352 4.70566 277.322C2.36976 269.478 3.12948 260.649 7.97957 253.905C10.163 250.868 13.0502 248.411 16.3912 246.748C19.9549 244.989 23.7575 244.6 27.6798 244.757C31.7073 244.92 35.7754 245.473 39.7786 244.724C41.604 244.382 43.5023 243.745 45.0137 242.636C46.4278 241.597 47.461 240.181 48.6077 238.872C49.8496 237.455 51.6182 235.781 53.6745 236.115C54.9529 236.329 55.5019 234.367 54.2154 234.157Z" fill="#F6A50C"/>
<path d="M8.12138 269.175C9.20121 260.515 14.6955 253.064 23.2349 250.705C25.3643 250.115 27.5715 249.859 29.7786 249.946C32.1348 250.039 34.341 250.748 36.6486 251.135C38.6846 251.477 40.9071 251.684 42.8905 250.959C44.5781 250.343 45.8828 249.091 47.2138 247.926C48.1984 247.063 46.76 245.63 45.7815 246.487C44.6429 247.485 43.5104 248.633 42.0375 249.105C40.2 249.693 38.0951 249.37 36.2495 248.997C32.6939 248.276 29.414 247.617 25.7652 248.118C19.027 249.046 13.0322 252.853 9.53751 258.74C7.64326 261.932 6.55331 265.502 6.09545 269.177C5.9354 270.471 7.96133 270.459 8.12138 269.175Z" fill="black"/>
<path d="M36.0671 300.516C34.5152 304.698 28.9722 303.059 25.7692 302.169C21.7599 301.056 17.9471 299.134 14.7198 296.49C10.1209 292.722 6.76799 287.527 4.74408 281.951C0.832002 271.164 1.51474 257.38 11.3061 249.936C14.4503 247.544 18.3644 245.451 22.2765 244.79C26.8815 244.01 31.5614 244.963 36.1643 243.961C39.9893 243.129 43.4374 242.07 46.3142 239.293C47.8195 237.84 49.2843 236.623 51.3142 235.977C52.8317 235.495 55.7267 234.992 56.4824 236.934C56.8471 237.87 56.4216 238.97 56.1805 239.898C55.9536 240.771 55.7105 241.641 55.4613 242.51C54.8226 244.718 54.1547 246.917 53.4577 249.107C51.6923 254.66 49.8702 260.194 47.9917 265.708C44.3552 276.463 40.5869 287.171 36.9402 297.921L36.0671 300.516C35.6517 301.762 37.6088 302.296 38.0201 301.058C41.7255 289.941 45.6558 278.9 49.42 267.801C51.4823 261.771 53.48 255.718 55.4127 249.645C56.1441 247.324 56.8633 244.999 57.5278 242.658C58.0788 240.718 59.1121 238.249 58.403 236.262C57.0172 232.384 51.7762 233.402 48.9682 234.735C46.9868 235.678 45.6335 237.256 44.0087 238.67C42.3373 240.124 40.2607 240.855 38.1497 241.404C35.8462 242.005 33.5508 242.453 31.1663 242.508C28.6764 242.567 26.1846 242.373 23.6987 242.581C19.2174 242.96 15.0176 244.957 11.3162 247.442C0.364012 254.799 -1.4958 269.173 2.29068 281.027C4.1829 286.949 7.42439 292.6 12.0152 296.824C16.8404 301.235 22.8796 304.078 29.341 304.981C31.1663 305.237 33.0545 305.52 34.7846 304.724C36.3608 303.999 37.4224 302.666 38.0201 301.058C38.4759 299.828 36.5188 299.297 36.0671 300.516Z" fill="black"/>
<path d="M19.5233 284.703L22.9067 290.578C23.1721 291.038 23.8345 291.239 24.2924 290.942C24.5206 290.803 24.6859 290.579 24.7536 290.32C24.8212 290.06 24.7859 289.784 24.655 289.55L21.2717 283.675C21.0063 283.215 20.3438 283.013 19.886 283.31C19.6578 283.45 19.4924 283.673 19.4248 283.933C19.3572 284.193 19.3925 284.469 19.5233 284.703ZM21.9686 270.309L31.2089 287.726C31.8228 288.882 33.5712 287.856 32.9573 286.698L23.717 269.281C23.1052 268.124 21.3548 269.152 21.9686 270.309ZM31.294 266.473L36.3832 276.699C36.9666 277.871 38.715 276.841 38.1315 275.671L33.0424 265.445C32.4589 264.273 30.7106 265.303 31.294 266.473Z" fill="black"/>
<path d="M639.191 189.421L641.21 173.506C641.279 172.957 640.695 172.495 640.197 172.489C639.591 172.483 639.252 172.963 639.183 173.506L637.164 189.421C637.095 189.97 637.679 190.432 638.178 190.438C638.782 190.444 639.122 189.964 639.191 189.421ZM652.792 193.511C656.674 187.184 660.779 181.001 664.969 174.878C665.709 173.795 663.953 172.776 663.219 173.85C659.029 179.975 654.924 186.159 651.042 192.483C650.355 193.602 652.106 194.626 652.792 193.511ZM661.592 203.39L677.335 195.89C678.512 195.328 677.485 193.574 676.311 194.134L660.568 201.634C659.39 202.194 660.418 203.948 661.592 203.39Z" fill="black"/>
<path d="M486.361 214.376C472.381 221.341 463.033 235.788 462.578 250.983C462.539 252.272 464.607 252.27 464.647 250.983C465.081 236.462 474.069 222.748 487.405 216.103C488.589 215.513 487.544 213.785 486.361 214.376ZM465.832 214.306C461.219 216.968 458.219 221.787 457.888 226.965C457.806 228.252 459.874 228.246 459.957 226.965C460.243 222.5 462.911 218.321 466.874 216.035C468.018 215.374 466.978 213.643 465.832 214.306Z" fill="black"/>
</svg>
